<svg width="252" height="52" viewBox="0 0 252 52" fill="none" xmlns="http://www.w3.org/2000/svg">
<g clip-path="url(#clip0)">
<path d="M72.5692 22.6869C72.2355 22.4111 71.9793 22.0547 71.8253 21.652C71.6713 21.2494 71.6247 20.8142 71.6901 20.3885V12.0478C71.6545 11.6369 71.7116 11.2234 71.8571 10.8371C72.0027 10.4508 72.2332 10.1014 72.5318 9.8143C73.1054 9.35558 73.8242 9.11266 74.5611 9.12851C76.0854 9.12851 77.8062 9.17484 79.7232 9.27679H80.5836V10.8523H75.1409C74.9351 10.8228 74.7251 10.8412 74.5277 10.9062C74.3303 10.9713 74.1509 11.081 74.0039 11.2268C73.8568 11.3725 73.746 11.5503 73.6804 11.7459C73.6148 11.9415 73.5962 12.1496 73.6259 12.3536V15.2636L79.7232 15.3748V16.8576L73.6259 16.9874V19.8603C73.5971 20.0797 73.62 20.3027 73.6931 20.5118C73.7661 20.7209 73.8872 20.9103 74.0468 21.0651C74.3779 21.2923 74.7762 21.4032 75.1783 21.3802H80.5836V22.9556C78.3828 23.0916 76.4283 23.1626 74.7201 23.1688C73.9711 23.2182 73.2239 23.0507 72.5692 22.6869Z" fill="#231F20"/>
<path d="M82.4727 13.0208H84.0063L84.3897 14.1237C84.9081 13.7388 85.4777 13.4269 86.0824 13.1969C86.6788 12.9657 87.3124 12.8433 87.9527 12.8355C88.4036 12.7949 88.8577 12.8631 89.2762 13.0341C89.6947 13.2052 90.0652 13.4741 90.3561 13.8178C90.8885 14.5462 91.1586 15.4307 91.123 16.3293V23.1688H89.2526V16.5703C89.2795 16.0357 89.0911 15.5124 88.7289 15.1153C88.5443 14.9332 88.3233 14.7913 88.0802 14.6988C87.837 14.6062 87.577 14.565 87.3168 14.5778C86.8184 14.5713 86.3223 14.6464 85.8486 14.8002C85.3451 14.984 84.8599 15.2135 84.3991 15.486V23.1688H82.5288L82.4727 13.0208Z" fill="#231F20"/>
<path d="M94.7888 22.3996C94.2323 21.6539 93.9847 20.7255 94.0968 19.8047L94.1716 14.5778H92.5818V13.336L94.2464 13.0209L94.5363 10.1665H96.0513V13.0209H98.8568V14.5778H96.0513V19.7769C95.9954 20.2847 96.1357 20.7947 96.444 21.2041C96.706 21.4723 97.0594 21.6342 97.4353 21.6582L98.6978 21.7787V23.1688H97.1454C96.72 23.2132 96.29 23.1677 95.8837 23.035C95.4775 22.9024 95.1043 22.6858 94.7888 22.3996Z" fill="#231F20"/>
<path d="M101.933 22.8351C101.26 22.5146 100.74 21.9459 100.484 21.2504C100.131 20.2349 99.9729 19.1632 100.016 18.0902C99.9681 16.998 100.13 15.9066 100.493 14.8743C100.746 14.1843 101.264 13.6213 101.933 13.3081C102.763 12.9951 103.647 12.8501 104.533 12.8818C105.421 12.8479 106.306 12.9962 107.133 13.3174C107.802 13.6368 108.318 14.202 108.573 14.8929C108.94 15.9181 109.105 17.0034 109.059 18.0902C109.107 19.1702 108.945 20.2492 108.583 21.2689C108.331 21.9611 107.818 22.5293 107.152 22.8537C106.32 23.1835 105.428 23.3351 104.533 23.2985C103.643 23.3318 102.756 23.1737 101.933 22.8351ZM106.048 21.4821C106.249 21.3709 106.425 21.2209 106.567 21.0411C106.708 20.8612 106.812 20.6551 106.871 20.4348C107.09 19.6667 107.184 18.8691 107.152 18.0716C107.185 17.2741 107.09 16.4765 106.871 15.7084C106.813 15.4888 106.71 15.2834 106.568 15.1048C106.427 14.9263 106.25 14.7784 106.048 14.6705C105.57 14.4835 105.057 14.3983 104.543 14.4202C104.028 14.3946 103.515 14.4799 103.037 14.6705C102.839 14.7808 102.666 14.9296 102.528 15.108C102.39 15.2864 102.289 15.4906 102.233 15.7084C102.013 16.4765 101.919 17.2741 101.952 18.0716C101.918 18.8753 102.012 19.6792 102.233 20.4534C102.289 20.6712 102.39 20.8754 102.528 21.0538C102.666 21.2322 102.839 21.381 103.037 21.4913C103.515 21.6819 104.028 21.7672 104.543 21.7416C105.067 21.7651 105.59 21.6766 106.076 21.4821H106.048Z" fill="#231F20"/>
<path d="M111.117 13.0209H112.65L113.034 14.1237C113.578 13.7476 114.165 13.4365 114.783 13.1969C115.414 12.9663 116.083 12.8501 116.756 12.854C117.312 12.8437 117.861 12.9813 118.346 13.2525C118.784 13.5173 119.145 13.8911 119.393 14.3368C119.968 13.9114 120.597 13.5625 121.263 13.2989C121.923 13.0185 122.631 12.8674 123.349 12.854C123.799 12.8141 124.252 12.8769 124.673 13.0376C125.095 13.1982 125.473 13.4525 125.78 13.7808C126.339 14.5287 126.617 15.4465 126.566 16.3757V23.1688H124.649V16.5703C124.676 16.0357 124.487 15.5124 124.125 15.1153C123.938 14.9308 123.714 14.7876 123.468 14.6949C123.221 14.6023 122.957 14.5624 122.694 14.5778C122.175 14.5853 121.66 14.6761 121.17 14.8466C120.637 15.0358 120.126 15.2812 119.646 15.5787C119.744 15.9065 119.795 16.2468 119.795 16.5888V23.1688H117.925V16.5703C117.954 16.037 117.769 15.5139 117.411 15.1153C117.225 14.932 117.002 14.7895 116.757 14.6969C116.513 14.6043 116.251 14.5637 115.989 14.5778C115.494 14.572 115.001 14.6471 114.53 14.8002C114.026 14.9821 113.54 15.2118 113.081 15.486V23.1688H111.164L111.117 13.0209Z" fill="#231F20"/>
<path d="M130.447 22.8351C129.775 22.5122 129.256 21.9443 128.997 21.2504C128.645 20.2349 128.486 19.1632 128.53 18.0902C128.479 16.9971 128.644 15.9047 129.016 14.8743C129.269 14.1843 129.786 13.6213 130.456 13.3081C131.285 12.9951 132.169 12.8501 133.056 12.8818C133.944 12.8479 134.829 12.9962 135.656 13.3174C136.325 13.6389 136.844 14.2029 137.105 14.8929C137.468 15.9189 137.63 17.004 137.582 18.0902C137.627 19.1693 137.468 20.2473 137.115 21.2689C136.857 21.9602 136.341 22.5273 135.674 22.8537C134.843 23.1843 133.951 23.336 133.056 23.2985C132.163 23.3331 131.272 23.175 130.447 22.8351ZM134.562 21.4821C134.762 21.3709 134.939 21.2209 135.08 21.0411C135.221 20.8612 135.325 20.6551 135.384 20.4348C135.603 19.6667 135.698 18.8691 135.665 18.0716C135.698 17.2741 135.604 16.4765 135.384 15.7084C135.326 15.4888 135.223 15.2834 135.082 15.1048C134.94 14.9263 134.763 14.7784 134.562 14.6705C134.083 14.4835 133.57 14.3983 133.056 14.4202C132.542 14.3954 132.028 14.4808 131.55 14.6705C131.354 14.7825 131.182 14.9318 131.044 15.1099C130.906 15.2881 130.805 15.4914 130.746 15.7084C130.527 16.4765 130.432 17.2741 130.465 18.0716C130.431 18.8753 130.526 19.6792 130.746 20.4534C130.805 20.6704 130.906 20.8737 131.044 21.0519C131.182 21.23 131.354 21.3793 131.55 21.4913C132.028 21.681 132.542 21.7664 133.056 21.7416C133.571 21.7611 134.084 21.6727 134.562 21.4821Z" fill="#231F20"/>
<path d="M140.275 22.4366C139.74 21.7087 139.491 20.8127 139.574 19.9159V8.68365H141.491V19.6657C141.438 20.1985 141.549 20.7347 141.809 21.2041C141.934 21.3524 142.088 21.4747 142.262 21.5637C142.435 21.6528 142.624 21.707 142.819 21.723L143.754 21.8343V23.1688H142.417C142.028 23.201 141.637 23.1525 141.268 23.0264C140.899 22.9004 140.561 22.6995 140.275 22.4366Z" fill="#231F20"/>
<path d="M146.719 22.8351C146.045 22.5146 145.525 21.9459 145.269 21.2504C144.917 20.2349 144.758 19.1632 144.802 18.0902C144.753 16.998 144.915 15.9066 145.278 14.8743C145.533 14.1826 146.055 13.6194 146.728 13.3081C147.557 12.9951 148.441 12.8501 149.328 12.8818C150.215 12.8479 151.101 12.9962 151.928 13.3174C152.596 13.6368 153.113 14.202 153.368 14.8929C153.739 15.917 153.904 17.0032 153.854 18.0902C153.904 19.1863 153.739 20.2816 153.368 21.3153C153.116 22.0074 152.603 22.5757 151.937 22.9C151.106 23.2299 150.213 23.3815 149.318 23.3448C148.425 23.3635 147.538 23.1896 146.719 22.8351ZM150.833 21.4821C151.034 21.3709 151.211 21.2209 151.352 21.0411C151.493 20.8612 151.597 20.6551 151.656 20.4348C151.875 19.6667 151.97 18.8691 151.937 18.0716C151.97 17.2741 151.876 16.4765 151.656 15.7084C151.598 15.4888 151.495 15.2834 151.354 15.1048C151.212 14.9263 151.035 14.7784 150.833 14.6705C150.355 14.4835 149.842 14.3983 149.328 14.4202C148.814 14.3946 148.3 14.4799 147.822 14.6705C147.624 14.7808 147.451 14.9296 147.313 15.108C147.175 15.2864 147.074 15.4906 147.018 15.7084C146.799 16.4765 146.704 17.2741 146.737 18.0716C146.703 18.8753 146.798 19.6792 147.018 20.4534C147.074 20.6712 147.175 20.8754 147.313 21.0538C147.451 21.2322 147.624 21.381 147.822 21.4913C148.3 21.6819 148.814 21.7672 149.328 21.7416C149.842 21.7611 150.356 21.6727 150.833 21.4821Z" fill="#231F20"/>
<path d="M165.141 14.0773L163.056 14.2905C163.393 14.5413 163.676 14.8564 163.888 15.2172C164.133 15.6987 164.243 16.2364 164.206 16.7742C164.22 17.1839 164.15 17.5921 164.001 17.9744C163.851 18.3566 163.625 18.7049 163.337 18.9984C162.951 19.3219 162.505 19.5663 162.023 19.7174C161.541 19.8686 161.034 19.9234 160.531 19.8788H158.848C157.8 19.8788 157.277 20.1877 157.277 20.8056C157.268 20.922 157.291 21.0385 157.344 21.1429C157.397 21.2473 157.477 21.3356 157.576 21.3987C157.79 21.526 158.037 21.5902 158.287 21.584H161.532C162.476 21.517 163.417 21.7614 164.206 22.2791C164.524 22.5436 164.774 22.8787 164.937 23.2571C165.099 23.6355 165.169 24.0466 165.141 24.457V24.8184C165.17 25.241 165.1 25.6644 164.938 26.0563C164.776 26.4482 164.526 26.7982 164.206 27.0797C163.377 27.6645 162.369 27.9462 161.354 27.8767H158.427C157.562 27.9146 156.707 27.6882 155.977 27.2279C155.673 27.0246 155.428 26.7472 155.264 26.4226C155.1 26.098 155.024 25.737 155.042 25.3744V24.9574C155.032 24.4576 155.19 23.9687 155.49 23.5673C155.801 23.1603 156.214 22.8408 156.688 22.6405C156.386 22.4912 156.131 22.2638 155.949 21.9825C155.773 21.7051 155.682 21.3833 155.687 21.0558C155.673 20.6073 155.838 20.1714 156.145 19.8417C156.49 19.4986 156.935 19.2717 157.417 19.193C156.834 18.9616 156.349 18.5398 156.042 17.9975C155.764 17.4553 155.623 16.8542 155.631 16.2459C155.631 14.0588 156.987 12.9652 159.68 12.9652H165.198L165.141 14.0773ZM158.782 23.0298C158.281 23.0102 157.786 23.1498 157.37 23.4283C157.185 23.5625 157.037 23.7405 156.939 23.946C156.841 24.1516 156.796 24.3782 156.809 24.6052V24.9667C156.809 25.9768 157.492 26.4865 158.857 26.4865H161.102C161.669 26.5192 162.233 26.3803 162.719 26.088C162.911 25.9549 163.066 25.7749 163.167 25.5655C163.269 25.3561 163.314 25.1244 163.299 24.8925V24.5311C163.311 24.3219 163.275 24.1127 163.192 23.9198C163.109 23.7269 162.983 23.5555 162.822 23.419C162.357 23.1186 161.804 22.9815 161.251 23.0298H158.782ZM161.981 17.8678C162.302 17.4914 162.466 17.0072 162.439 16.5147C162.439 15.1431 161.784 14.4573 160.466 14.4573H159.39C158.836 14.4214 158.288 14.5861 157.847 14.9207C157.656 15.1148 157.509 15.3482 157.419 15.6044C157.328 15.8606 157.296 16.1334 157.323 16.4035C157.323 17.7195 157.947 18.3775 159.194 18.3775H160.325C160.622 18.4115 160.922 18.3838 161.207 18.296C161.492 18.2082 161.756 18.0623 161.981 17.8678Z" fill="#231F20"/>
<path d="M171.398 23.1688C170.766 23.1678 170.153 22.9555 169.658 22.5664C169.101 22.0791 168.712 21.4309 168.546 20.7129L166.245 13.0394H168.256L170.332 20.3144C170.612 21.1763 171.089 21.6026 171.762 21.6026L174.166 13.0394H176.139L172.604 25.8193L171.669 27.6728H170.201L171.398 23.1688Z" fill="#231F20"/>
<path d="M182.788 9.18411H184.724V23.1688H182.788V9.18411Z" fill="#231F20"/>
<path d="M187.146 13.0209H188.68L189.063 14.1237C189.585 13.7388 190.158 13.4269 190.765 13.1969C191.361 12.9641 191.995 12.8416 192.635 12.8355C193.085 12.7965 193.537 12.8654 193.954 13.0364C194.371 13.2074 194.74 13.4755 195.029 13.8179C195.562 14.5462 195.832 15.4307 195.796 16.3294V23.1688H193.926V16.5703C193.951 16.0376 193.767 15.5159 193.412 15.1153C193.226 14.932 193.003 14.7895 192.759 14.6969C192.514 14.6043 192.252 14.5637 191.99 14.5778C191.492 14.5713 190.996 14.6465 190.522 14.8002C190.018 14.984 189.533 15.2136 189.072 15.486V23.1688H187.202L187.146 13.0209Z" fill="#231F20"/>
<path d="M199.5 23.1688C198.91 23.1478 198.325 23.0702 197.751 22.9371V21.8343H202.062C202.529 21.866 202.996 21.7766 203.418 21.5748C203.581 21.4586 203.709 21.3006 203.788 21.1177C203.867 20.9348 203.894 20.7339 203.867 20.5368V20.1198C203.867 19.3135 203.315 18.9057 202.212 18.9057H200.715C199.91 18.9571 199.11 18.749 198.433 18.3126C198.15 18.0674 197.929 17.7589 197.789 17.4125C197.649 17.066 197.594 16.6916 197.629 16.3201V15.7548C197.596 15.3519 197.658 14.9468 197.811 14.5719C197.963 14.197 198.202 13.8626 198.508 13.5954C199.367 13.0603 200.378 12.8163 201.389 12.9004C201.95 12.9004 202.614 12.9004 203.362 13.0116C203.949 13.0565 204.532 13.1338 205.111 13.2433V14.3832H201.061C200.6 14.3482 200.14 14.455 199.743 14.689C199.591 14.8197 199.473 14.9849 199.4 15.1706C199.327 15.3562 199.3 15.5567 199.322 15.7548V16.1347C199.322 16.6167 199.453 16.9318 199.733 17.0615C200.15 17.2446 200.606 17.3241 201.061 17.2932H202.595C203.386 17.238 204.169 17.4758 204.793 17.9604C205.046 18.1973 205.245 18.4854 205.375 18.8053C205.506 19.1252 205.566 19.4692 205.55 19.8139V20.5924C205.595 20.9843 205.532 21.381 205.367 21.7401C205.203 22.0992 204.943 22.4072 204.615 22.6313C203.73 23.0729 202.743 23.2743 201.753 23.2151C201.061 23.2985 200.323 23.2707 199.5 23.1688Z" fill="#231F20"/>
<path d="M208.861 22.3996C208.311 21.6506 208.064 20.7249 208.169 19.8047L208.253 14.5778H206.616V13.336L208.29 13.0209L208.543 10.1943H210.058V13.0487H212.863V14.6056H210.058V19.8047C210.002 20.3125 210.142 20.8225 210.45 21.2319C210.713 21.4987 211.066 21.6603 211.442 21.686L212.704 21.8065V23.1688H211.152C210.737 23.2028 210.32 23.1521 209.926 23.0198C209.532 22.8875 209.169 22.6764 208.861 22.3996Z" fill="#231F20"/>
<path d="M214.565 11.223C214.533 11.192 214.508 11.1544 214.491 11.1127C214.475 11.0711 214.469 11.0265 214.472 10.982V9.38799C214.465 9.34152 214.47 9.29428 214.485 9.24991C214.501 9.20553 214.526 9.16522 214.559 9.13209C214.593 9.09895 214.634 9.07387 214.678 9.05878C214.723 9.0437 214.771 9.03902 214.818 9.04509H216.23C216.273 9.04395 216.316 9.05158 216.356 9.06752C216.397 9.08345 216.433 9.10736 216.464 9.13777C216.514 9.21137 216.54 9.29888 216.538 9.38799V10.982C216.538 11.2044 216.435 11.3064 216.23 11.3064H214.818C214.726 11.3102 214.636 11.2805 214.565 11.223ZM214.565 13.0209H216.482V23.1688H214.565V13.0209Z" fill="#231F20"/>
<path d="M220.242 22.3996C219.692 21.6506 219.445 20.7249 219.55 19.8047L219.624 14.5778H217.997V13.336L219.671 13.0209L219.952 10.1665H221.467V13.0209H224.272V14.5778H221.467V19.7769C221.411 20.2847 221.551 20.7947 221.859 21.2041C222.121 21.4723 222.475 21.6342 222.851 21.6582L224.113 21.7787V23.1688H222.57C222.149 23.2081 221.725 23.1599 221.324 23.0275C220.923 22.8951 220.554 22.6812 220.242 22.3996Z" fill="#231F20"/>
<path d="M226.694 22.5201C226.414 22.2017 226.202 21.831 226.068 21.43C225.935 21.0289 225.884 20.6055 225.918 20.1847V13.0209H227.788V19.6657C227.757 19.938 227.785 20.2138 227.87 20.4745C227.956 20.7351 228.097 20.9745 228.284 21.1763C228.72 21.4958 229.259 21.6473 229.799 21.6026C230.804 21.5661 231.778 21.2445 232.605 20.6758V12.9838H234.522V23.1688H232.988L232.605 22.066C231.504 22.8257 230.204 23.2508 228.864 23.2893C228.066 23.3281 227.286 23.0514 226.694 22.5201Z" fill="#231F20"/>
<path d="M238.356 22.3996C237.81 21.6494 237.566 20.7238 237.673 19.8047L237.748 14.5778H236.121V13.336L237.785 13.0209L238.075 10.1665H239.59V13.0209H242.396V14.5778H239.59V19.7769C239.534 20.2847 239.675 20.7947 239.983 21.2041C240.243 21.4702 240.592 21.632 240.965 21.6582L242.237 21.7787V23.1688H240.684C240.264 23.2075 239.839 23.1591 239.439 23.0267C239.038 22.8943 238.669 22.6807 238.356 22.3996Z" fill="#231F20"/>
<path d="M245.416 22.8166C244.78 22.476 244.301 21.9049 244.079 21.2226C243.762 20.2095 243.623 19.15 243.668 18.0902C243.622 17.0182 243.761 15.9464 244.079 14.9207C244.186 14.5812 244.36 14.2662 244.592 13.9941C244.823 13.722 245.106 13.4983 245.426 13.336C246.252 12.9987 247.142 12.8437 248.035 12.8819C248.82 12.8551 249.604 12.9585 250.354 13.1877C250.875 13.3737 251.306 13.7477 251.56 14.2349C251.861 14.8748 251.999 15.578 251.963 16.283C251.997 16.6459 251.943 17.0116 251.807 17.35C251.67 17.6884 251.454 17.9898 251.177 18.2292C250.513 18.6699 249.721 18.8816 248.923 18.8316H245.529C245.513 19.4406 245.598 20.0479 245.781 20.6295C245.856 20.8352 245.973 21.0236 246.124 21.1829C246.275 21.3423 246.458 21.4694 246.66 21.5562C247.238 21.7762 247.856 21.8741 248.474 21.8435H251.682V22.9834C250.981 23.0854 250.354 23.1595 249.812 23.2151C249.206 23.282 248.597 23.313 247.988 23.3078C247.104 23.3409 246.224 23.1729 245.416 22.8166ZM248.755 17.6083C249.158 17.6411 249.561 17.5364 249.896 17.3117C250.028 17.1749 250.128 17.0111 250.19 16.8318C250.251 16.6524 250.272 16.462 250.251 16.2738C250.283 15.9907 250.255 15.7042 250.168 15.4328C250.081 15.1613 249.937 14.9111 249.746 14.6983C249.227 14.3604 248.607 14.2068 247.988 14.2627C247.47 14.2338 246.953 14.3325 246.482 14.55C246.298 14.6583 246.137 14.8016 246.009 14.9718C245.88 15.142 245.787 15.3356 245.734 15.5416C245.565 16.2171 245.493 16.9128 245.519 17.6083H248.755Z" fill="#231F20"/>
<path d="M73.5885 42.853C72.9151 42.5325 72.3949 41.9637 72.139 41.2682C71.7865 40.2527 71.6279 39.1811 71.6714 38.108C71.6231 37.0158 71.785 35.9245 72.1484 34.8922C72.4115 34.2144 72.9317 33.6656 73.5979 33.363C74.4267 33.049 75.3109 32.904 76.1976 32.9367C77.0822 32.9027 77.9643 33.051 78.7881 33.3723C79.459 33.6914 79.9787 34.2563 80.2376 34.9478C80.6004 35.9738 80.7622 37.059 80.7145 38.1451C80.764 39.2245 80.6053 40.3033 80.2469 41.3238C79.9924 42.0171 79.476 42.5854 78.8068 42.9086C77.9787 43.2385 77.0893 43.3901 76.1976 43.3534C75.3015 43.3772 74.411 43.2064 73.5885 42.853ZM77.7033 41.4999C77.9103 41.393 78.0928 41.2447 78.2393 41.0645C78.3857 40.8843 78.493 40.676 78.5543 40.4527C78.7641 39.683 78.8556 38.8862 78.8255 38.0895C78.8563 37.2927 78.7648 36.4959 78.5543 35.7263C78.4961 35.5066 78.393 35.3012 78.2515 35.1227C78.1099 34.9441 77.9329 34.7963 77.7313 34.6883C77.2527 34.5014 76.7397 34.4161 76.2257 34.4381C75.7115 34.4124 75.1977 34.4978 74.7201 34.6883C74.5144 34.7934 74.3332 34.9401 74.1882 35.1188C74.0432 35.2976 73.9377 35.5046 73.8784 35.7263C73.6592 36.4943 73.5645 37.292 73.5979 38.0895C73.5634 38.8931 73.6581 39.6971 73.8784 40.4712C73.9334 40.6897 74.0332 40.8946 74.1716 41.0731C74.3099 41.2517 74.4839 41.4001 74.6827 41.5092C75.1603 41.6997 75.674 41.7851 76.1883 41.7594C76.7061 41.7803 77.2225 41.6918 77.7033 41.4999Z" fill="#231F20"/>
<path d="M83.4077 34.5956H81.874V33.363L83.4077 33.0479V32.0285C83.3331 31.1064 83.5807 30.187 84.1091 29.4243C84.4195 29.1191 84.7945 28.886 85.2068 28.7418C85.6192 28.5975 86.0588 28.5458 86.4938 28.5903C87.1691 28.5927 87.8425 28.661 88.5044 28.7942V30.1657H86.8398C86.6212 30.1379 86.3992 30.1611 86.1913 30.2335C85.9835 30.3059 85.7956 30.4256 85.6428 30.5828C85.3961 30.9896 85.2849 31.4629 85.3248 31.9358V33.0387H88.336V34.5956H85.3248V43.1959H83.4545L83.4077 34.5956Z" fill="#231F20"/>
<path d="M96.7619 42.751C95.9737 42.2819 95.4003 41.5276 95.1628 40.6473C94.7431 39.1869 94.56 37.6698 94.6204 36.1526C94.5648 34.6861 94.7544 33.2205 95.1815 31.8154C95.4422 30.9261 96.0293 30.1657 96.8274 29.6838C97.7275 29.2455 98.7244 29.0384 99.7264 29.0814C100.443 29.0856 101.159 29.1414 101.868 29.2483C102.552 29.3336 103.23 29.4636 103.897 29.6375V31.074C103.495 31.0184 102.962 30.9535 102.214 30.8886C101.466 30.8237 100.783 30.7959 100.063 30.7959C99.3393 30.7552 98.6173 30.9021 97.9683 31.2222C97.4159 31.5898 97.0275 32.154 96.8835 32.7977C96.6179 33.902 96.5015 35.0364 96.5375 36.1711C96.5003 37.3232 96.6103 38.4753 96.8648 39.6001C96.9954 40.242 97.3748 40.8077 97.9215 41.1755C98.5795 41.4988 99.3113 41.6457 100.044 41.6019C101.332 41.618 102.62 41.5436 103.897 41.3794V42.8344C102.505 43.1711 101.075 43.333 99.6422 43.3163C98.65 43.3629 97.6613 43.1688 96.7619 42.751Z" fill="#231F20"/>
<path d="M106.17 42.6305C105.923 42.3898 105.731 42.1003 105.605 41.7809C105.48 41.4615 105.423 41.1194 105.44 40.777V39.98C105.425 39.6139 105.492 39.2489 105.638 38.912C105.783 38.5752 106.004 38.2751 106.282 38.0339C106.976 37.4982 107.846 37.2372 108.723 37.3017H111.921V36.2267C111.937 35.8754 111.866 35.5255 111.715 35.2073C111.544 34.9247 111.275 34.7138 110.958 34.6141C110.454 34.4531 109.925 34.381 109.396 34.401H106.254V33.2796C107.484 33.0208 108.737 32.8873 109.995 32.8811C111.016 32.8001 112.034 33.0647 112.884 33.6318C113.218 33.9457 113.476 34.3307 113.638 34.7577C113.8 35.1848 113.862 35.6427 113.819 36.0969V43.1959H112.304L111.986 42.056C111.73 42.239 111.454 42.3943 111.164 42.5193C110.683 42.7404 110.186 42.9232 109.677 43.0661C109.137 43.2286 108.576 43.3128 108.012 43.3163C107.332 43.3319 106.672 43.0862 106.17 42.6305ZM110.088 41.7687C110.518 41.6575 110.92 41.537 111.304 41.4072C111.514 41.3374 111.72 41.257 111.921 41.1663V38.2377L109.237 38.3582C108.003 38.4324 107.367 38.9791 107.367 39.9893V40.4434C107.346 40.6544 107.377 40.8673 107.457 41.064C107.537 41.2607 107.663 41.4357 107.825 41.574C108.151 41.8151 108.55 41.9392 108.957 41.9262C109.338 41.9159 109.718 41.863 110.088 41.7687Z" fill="#231F20"/>
<path d="M116.167 33.0387H117.7L118.084 34.1415C118.606 33.7566 119.178 33.4447 119.786 33.2148C120.382 32.982 121.016 32.8594 121.656 32.8533C122.106 32.8143 122.558 32.8832 122.975 33.0542C123.391 33.2252 123.76 33.4933 124.05 33.8357C124.587 34.5621 124.857 35.448 124.817 36.3472V43.1866H122.947V36.5881C122.976 36.0548 122.791 35.5317 122.432 35.1331C122.247 34.9498 122.024 34.8073 121.779 34.7147C121.534 34.6221 121.273 34.5815 121.011 34.5956C120.513 34.5898 120.017 34.665 119.543 34.818C119.039 35.0018 118.554 35.2314 118.093 35.5038V43.1959H116.223L116.167 33.0387Z" fill="#231F20"/>
<path d="M127.314 42.6305C127.068 42.3898 126.875 42.1003 126.75 41.7809C126.624 41.4615 126.568 41.1194 126.584 40.777V39.98C126.569 39.6148 126.635 39.2507 126.779 38.9141C126.923 38.5774 127.141 38.2768 127.417 38.0339C128.115 37.4991 128.987 37.2384 129.867 37.3017H133.065V36.2267C133.078 35.8746 133.005 35.5246 132.85 35.2073C132.679 34.9247 132.41 34.7138 132.093 34.6141C131.589 34.4523 131.06 34.3802 130.531 34.401H127.389V33.2796C128.637 33.0177 129.909 32.8841 131.185 32.8811C132.204 32.8014 133.219 33.0661 134.066 33.6318C134.402 33.9444 134.661 34.3292 134.823 34.7566C134.985 35.184 135.046 35.6425 135.001 36.0969V43.1959H133.486L133.159 42.056C132.907 42.2418 132.634 42.3973 132.345 42.5193C131.862 42.7403 131.361 42.9231 130.849 43.0661C130.312 43.2279 129.755 43.3122 129.194 43.3163C128.5 43.3416 127.825 43.0952 127.314 42.6305ZM131.223 41.7687C131.662 41.6574 132.065 41.537 132.439 41.4072C132.652 41.3383 132.861 41.2579 133.065 41.1663V38.2377L130.381 38.3582C129.137 38.4324 128.511 38.9791 128.511 39.9893V40.4434C128.49 40.6544 128.521 40.8673 128.601 41.064C128.681 41.2607 128.807 41.4356 128.969 41.574C129.296 41.8137 129.694 41.9378 130.101 41.9262C130.48 41.9164 130.856 41.8635 131.223 41.7687Z" fill="#231F20"/>
<path d="M137.891 42.0838C137.181 40.9164 136.854 39.5597 136.955 38.2007C136.927 37.1655 137.053 36.1318 137.33 35.1331C137.524 34.4478 137.954 33.8513 138.545 33.4464C139.238 33.0519 140.029 32.8622 140.827 32.8997C141.848 32.9241 142.859 33.1118 143.82 33.4557V28.7293H145.737V43.1959H144.166L143.82 42.195C143.393 42.5344 142.908 42.795 142.389 42.9642C141.831 43.1831 141.239 43.3024 140.64 43.3163C140.115 43.3518 139.589 43.2578 139.109 43.0427C138.629 42.8277 138.211 42.4982 137.891 42.0838ZM143.848 40.9995V34.818L143.24 34.642C142.932 34.5533 142.62 34.4822 142.305 34.4288C142.02 34.3891 141.732 34.3675 141.444 34.3639C140.93 34.3387 140.419 34.4541 139.967 34.6976C139.574 34.9709 139.295 35.3758 139.181 35.8375C138.988 36.5785 138.903 37.3431 138.929 38.108C138.91 38.8348 138.989 39.5609 139.162 40.2673C139.271 40.7219 139.535 41.1249 139.911 41.4072C140.326 41.6594 140.808 41.782 141.295 41.7594C142.196 41.7217 143.074 41.4604 143.848 40.9995Z" fill="#231F20"/>
<path d="M148.234 42.6306C147.987 42.3898 147.795 42.1003 147.669 41.7809C147.544 41.4615 147.487 41.1195 147.504 40.7771V39.98C147.489 39.6148 147.555 39.2507 147.699 38.9141C147.843 38.5775 148.061 38.2768 148.337 38.0339C149.034 37.4991 149.907 37.2384 150.787 37.3017H153.985V36.2267C153.998 35.8746 153.924 35.5246 153.77 35.2073C153.599 34.9248 153.329 34.7139 153.012 34.6142C152.509 34.4516 151.98 34.3794 151.451 34.401H148.308V33.2796C149.557 33.0177 150.829 32.8842 152.105 32.8811C153.126 32.803 154.144 33.0674 154.995 33.6318C155.329 33.9457 155.587 34.3307 155.749 34.7577C155.911 35.1848 155.973 35.6427 155.93 36.097V43.1959H154.415L154.088 42.056C153.836 42.2418 153.563 42.3973 153.274 42.5193C152.791 42.7403 152.29 42.9232 151.778 43.0661C151.241 43.228 150.684 43.3122 150.123 43.3164C149.426 43.3441 148.747 43.0975 148.234 42.6306ZM152.143 41.7687C152.582 41.6575 152.984 41.537 153.358 41.4072C153.572 41.3384 153.781 41.2579 153.985 41.1663V38.2378L151.301 38.3582C150.057 38.4324 149.431 38.9792 149.431 39.9893V40.4434C149.413 40.6543 149.445 40.8664 149.524 41.0628C149.604 41.2591 149.729 41.4342 149.889 41.5741C150.216 41.8138 150.614 41.9378 151.02 41.9262C151.399 41.9164 151.776 41.8635 152.143 41.7687Z" fill="#231F20"/>
<path d="M40.7079 0H31.2533C30.3852 0 29.5527 0.341738 28.9389 0.950037C28.3251 1.55834 27.9802 2.38336 27.9802 3.24363V21.584C27.9802 22.4443 28.3251 23.2693 28.9389 23.8776C29.5527 24.4859 30.3852 24.8277 31.2533 24.8277H51.4343C52.0063 24.8226 52.5671 24.6691 53.0606 24.3824C53.5542 24.0956 53.9633 23.6857 54.2471 23.1934C54.5309 22.7012 54.6796 22.1438 54.6783 21.5769C54.6771 21.0099 54.5258 20.4532 54.2398 19.9622L43.5414 1.62181C43.2535 1.1295 42.8403 0.720638 42.3431 0.436052C41.8459 0.151467 41.2821 0.00111223 40.7079 0V0Z" fill="#231F20"/>
<path d="M11.222 1.62181L0.514269 19.9622C0.228196 20.4532 0.0769785 21.0099 0.0756919 21.5769C0.0744052 22.1438 0.223094 22.7012 0.506936 23.1934C0.790778 23.6857 1.19986 24.0956 1.6934 24.3824C2.18694 24.6691 2.7477 24.8226 3.31978 24.8277H23.3792C24.2472 24.8277 25.0798 24.4859 25.6936 23.8776C26.3074 23.2693 26.6522 22.4443 26.6522 21.584V3.24363C26.6522 2.38336 26.3074 1.55834 25.6936 0.950037C25.0798 0.341738 24.2472 0 23.3792 0H14.0275C13.4579 0.00502715 12.8994 0.157285 12.4074 0.441722C11.9154 0.726159 11.5067 1.13293 11.222 1.62181Z" fill="#231F20"/>
<path d="M30.7016 28.6644C30.5277 27.9587 30.1199 27.3312 29.5434 26.8826C28.9669 26.4339 28.255 26.19 27.522 26.19H3.28242C2.71034 26.195 2.14958 26.3485 1.65604 26.6353C1.1625 26.922 0.753424 27.3319 0.469582 27.8242C0.18574 28.3164 0.0370517 28.8738 0.0383384 29.4408C0.039625 30.0077 0.190842 30.5644 0.476915 31.0554L9.21139 46.1059C9.62662 46.8171 10.2988 47.3456 11.092 47.5847C11.8853 47.8239 12.7406 47.7557 13.4851 47.394L30.6268 39.0533C31.2996 38.7243 31.8388 38.1775 32.1551 37.5033C32.4715 36.8291 32.5459 36.0681 32.3662 35.3463L30.7016 28.6644Z" fill="#231F20"/>
<path d="M40.5302 51.9815H40.2964C39.5596 51.9799 38.8448 51.7321 38.2678 51.278C37.6908 50.8239 37.2853 50.1901 37.1168 49.4792L32.5252 30.175C32.4106 29.6994 32.4064 29.2042 32.5129 28.7267C32.6193 28.2492 32.8336 27.8018 33.1396 27.4183C33.4457 27.0347 33.8355 26.7249 34.2798 26.5121C34.7241 26.2994 35.2113 26.1892 35.7047 26.19H51.4343C52.0009 26.1986 52.5556 26.3528 53.044 26.6376C53.5324 26.9224 53.9378 27.328 54.2206 27.8146C54.5034 28.3013 54.6538 28.8524 54.6572 29.414C54.6605 29.9756 54.5167 30.5284 54.2398 31.0183L43.3825 50.3226C43.0977 50.8245 42.6837 51.2426 42.1826 51.534C41.6814 51.8255 41.1112 51.9799 40.5302 51.9815Z" fill="#231F20"/>
<path d="M32.3196 51.9815H14.888C14.4883 51.9882 14.0976 51.8633 13.7773 51.6263C13.4569 51.3893 13.2251 51.0535 13.1181 50.6718C13.0111 50.2901 13.035 49.884 13.1861 49.5172C13.3372 49.1504 13.6069 48.8437 13.9528 48.6452L29.5421 41.5277C29.9838 41.2666 30.4812 41.112 30.9942 41.0764C31.5073 41.0407 32.0216 41.1251 32.4957 41.3226C32.9698 41.5201 33.3904 41.8252 33.7237 42.2134C34.057 42.6015 34.2935 43.0619 34.4143 43.5573L35.5365 47.9594C35.6566 48.4404 35.6638 48.9423 35.5577 49.4266C35.4515 49.9108 35.2348 50.3646 34.9242 50.7529C34.6136 51.1413 34.2173 51.4539 33.7658 51.6669C33.3143 51.8799 32.8196 51.9875 32.3196 51.9815Z" fill="#231F20"/>
</g>
<defs>
<clipPath id="clip0">
<rect width="252" height="52" fill="white"/>
</clipPath>
</defs>
</svg>
