<svg width="49" height="49" viewBox="0 0 49 49" fill="none" xmlns="http://www.w3.org/2000/svg">
<g id="ic:round-arrow-right" clip-path="url(#clip0)">
<g id="iwwa:arrow-left">
<g id="Vector">
<mask id="path-1-inside-1" fill="white">
<path d="M30.3228 34.7752C30.2421 34.7753 30.1622 34.7591 30.088 34.7276C30.0138 34.696 29.9467 34.6498 29.8908 34.5916L21.06 25.4344C20.952 25.3229 20.8916 25.1738 20.8916 25.0186C20.8916 24.8634 20.952 24.7143 21.06 24.6028L29.9292 15.4084C29.9829 15.3483 30.0483 15.2996 30.1212 15.2653C30.1942 15.231 30.2734 15.2118 30.354 15.2087C30.4346 15.2057 30.5149 15.219 30.5903 15.2477C30.6657 15.2765 30.7344 15.3201 30.7926 15.376C30.8507 15.4319 30.8969 15.499 30.9285 15.5732C30.9601 15.6474 30.9764 15.7272 30.9765 15.8079C30.9765 15.8885 30.9603 15.9684 30.9288 16.0426C30.8973 16.1169 30.8512 16.184 30.7932 16.24L22.326 25.018L30.7548 33.7588C30.8365 33.8436 30.8914 33.9505 30.9128 34.0663C30.9342 34.182 30.921 34.3015 30.875 34.4099C30.8289 34.5183 30.752 34.6107 30.6538 34.6756C30.5556 34.7406 30.4405 34.7752 30.3228 34.7752Z"/>
</mask>
<path d="M30.3228 34.7752C30.2421 34.7753 30.1622 34.7591 30.088 34.7276C30.0138 34.696 29.9467 34.6498 29.8908 34.5916L21.06 25.4344C20.952 25.3229 20.8916 25.1738 20.8916 25.0186C20.8916 24.8634 20.952 24.7143 21.06 24.6028L29.9292 15.4084C29.9829 15.3483 30.0483 15.2996 30.1212 15.2653C30.1942 15.231 30.2734 15.2118 30.354 15.2087C30.4346 15.2057 30.5149 15.219 30.5903 15.2477C30.6657 15.2765 30.7344 15.3201 30.7926 15.376C30.8507 15.4319 30.8969 15.499 30.9285 15.5732C30.9601 15.6474 30.9764 15.7272 30.9765 15.8079C30.9765 15.8885 30.9603 15.9684 30.9288 16.0426C30.8973 16.1169 30.8512 16.184 30.7932 16.24L22.326 25.018L30.7548 33.7588C30.8365 33.8436 30.8914 33.9505 30.9128 34.0663C30.9342 34.182 30.921 34.3015 30.875 34.4099C30.8289 34.5183 30.752 34.6107 30.6538 34.6756C30.5556 34.7406 30.4405 34.7752 30.3228 34.7752Z" fill="black"/>
<path d="M29.8908 34.5916L31.3331 33.2061L31.3304 33.2033L29.8908 34.5916ZM21.06 25.4344L22.4996 24.0461L22.4965 24.0428L21.06 25.4344ZM20.8916 25.0186H18.8916H20.8916ZM21.06 24.6028L22.4965 25.9944L22.4994 25.9913L21.06 24.6028ZM29.9292 15.4084L31.3686 16.7969L31.3949 16.7697L31.4202 16.7414L29.9292 15.4084ZM30.7932 16.24L29.4042 14.801L29.3785 14.8258L29.3537 14.8515L30.7932 16.24ZM22.326 25.018L20.8865 23.6295L19.5474 25.0178L20.8863 26.4063L22.326 25.018ZM30.7548 33.7588L32.1947 32.3708L32.1945 32.3705L30.7548 33.7588ZM30.3193 32.7752C30.5086 32.7749 30.696 32.8129 30.8703 32.8869L29.3057 36.5683C29.6284 36.7054 29.9756 36.7758 30.3262 36.7752L30.3193 32.7752ZM30.8703 32.8869C31.0445 32.961 31.2019 33.0695 31.3331 33.2061L28.4485 35.9771C28.6914 36.23 28.983 36.4311 29.3057 36.5683L30.8703 32.8869ZM31.3304 33.2033L22.4996 24.0461L19.6203 26.8227L28.4511 35.9799L31.3304 33.2033ZM22.4965 24.0428C22.7499 24.3044 22.8916 24.6544 22.8916 25.0186H18.8916C18.8916 25.6932 19.1541 26.3414 19.6235 26.826L22.4965 24.0428ZM22.8916 25.0186C22.8916 25.3828 22.7499 25.7328 22.4965 25.9944L19.6235 23.2112C19.1541 23.6958 18.8916 24.344 18.8916 25.0186H22.8916ZM22.4994 25.9913L31.3686 16.7969L28.4897 14.0199L19.6205 23.2143L22.4994 25.9913ZM31.4202 16.7414C31.2947 16.8817 31.1423 16.9953 30.972 17.0753L29.2705 13.4553C28.9542 13.6039 28.6711 13.8148 28.4382 14.0754L31.4202 16.7414ZM30.972 17.0753C30.8017 17.1554 30.617 17.2003 30.4289 17.2073L30.279 13.2101C29.9298 13.2232 29.5868 13.3066 29.2705 13.4553L30.972 17.0753ZM30.4289 17.2073C30.2409 17.2144 30.0533 17.1835 29.8775 17.1164L31.3031 13.379C30.9766 13.2545 30.6283 13.197 30.279 13.2101L30.4289 17.2073ZM29.8775 17.1164C29.7017 17.0493 29.5412 16.9475 29.4056 16.817L32.1795 13.935C31.9277 13.6927 31.6296 13.5036 31.3031 13.379L29.8775 17.1164ZM29.4056 16.817C29.27 16.6865 29.1621 16.53 29.0884 16.3569L32.7686 14.7896C32.6316 14.468 32.4313 14.1774 32.1795 13.935L29.4056 16.817ZM29.0884 16.3569C29.0147 16.1837 28.9766 15.9975 28.9765 15.8093L32.9765 15.8064C32.9762 15.457 32.9055 15.1111 32.7686 14.7896L29.0884 16.3569ZM28.9765 15.8093C28.9763 15.6212 29.0141 15.4349 29.0876 15.2616L32.77 16.8236C32.9065 16.5018 32.9767 16.1559 32.9765 15.8064L28.9765 15.8093ZM29.0876 15.2616C29.1611 15.0884 29.2688 14.9317 29.4042 14.801L32.1822 17.679C32.4336 17.4363 32.6336 17.1453 32.77 16.8236L29.0876 15.2616ZM29.3537 14.8515L20.8865 23.6295L23.7654 26.4065L32.2326 17.6285L29.3537 14.8515ZM20.8863 26.4063L29.3151 35.1471L32.1945 32.3705L23.7656 23.6297L20.8863 26.4063ZM29.3148 35.1468C29.1242 34.949 28.9959 34.6995 28.9461 34.4294L32.8796 33.7032C32.787 33.2015 32.5488 32.7381 32.1947 32.3708L29.3148 35.1468ZM28.9461 34.4294C28.8962 34.1592 28.9269 33.8804 29.0343 33.6276L32.7156 35.1922C32.9152 34.7227 32.9722 34.2049 32.8796 33.7032L28.9461 34.4294ZM29.0343 33.6276C29.1418 33.3748 29.3212 33.1591 29.5504 33.0076L31.7573 36.3437C32.1828 36.0622 32.5161 35.6617 32.7156 35.1922L29.0343 33.6276ZM29.5504 33.0076C29.7795 32.856 30.0481 32.7752 30.3228 32.7752L30.3227 36.7752C30.8329 36.7752 31.3318 36.6251 31.7573 36.3437L29.5504 33.0076Z" fill="black" mask="url(#path-1-inside-1)"/>
</g>
<g id="Vector_2">
<mask id="path-3-inside-2" fill="white">
<path d="M50.508 25.6192H21.492C21.3328 25.6192 21.1802 25.556 21.0677 25.4435C20.9552 25.3309 20.892 25.1783 20.892 25.0192C20.892 24.8601 20.9552 24.7074 21.0677 24.5949C21.1802 24.4824 21.3328 24.4192 21.492 24.4192H50.508C50.6671 24.4192 50.8197 24.4824 50.9322 24.5949C51.0448 24.7074 51.108 24.8601 51.108 25.0192C51.108 25.1783 51.0448 25.3309 50.9322 25.4435C50.8197 25.556 50.6671 25.6192 50.508 25.6192Z"/>
</mask>
<path d="M50.508 25.6192H21.492C21.3328 25.6192 21.1802 25.556 21.0677 25.4435C20.9552 25.3309 20.892 25.1783 20.892 25.0192C20.892 24.8601 20.9552 24.7074 21.0677 24.5949C21.1802 24.4824 21.3328 24.4192 21.492 24.4192H50.508C50.6671 24.4192 50.8197 24.4824 50.9322 24.5949C51.0448 24.7074 51.108 24.8601 51.108 25.0192C51.108 25.1783 51.0448 25.3309 50.9322 25.4435C50.8197 25.556 50.6671 25.6192 50.508 25.6192Z" fill="black"/>
<path d="M50.508 23.6192H21.492V27.6192H50.508V23.6192ZM21.492 23.6192C21.8633 23.6192 22.2194 23.7667 22.4819 24.0292L19.6535 26.8577C20.1411 27.3453 20.8024 27.6192 21.492 27.6192V23.6192ZM22.4819 24.0292C22.7445 24.2918 22.892 24.6479 22.892 25.0192H18.892C18.892 25.7088 19.1659 26.3701 19.6535 26.8577L22.4819 24.0292ZM22.892 25.0192C22.892 25.3905 22.7445 25.7466 22.4819 26.0091L19.6535 23.1807C19.1659 23.6683 18.892 24.3296 18.892 25.0192H22.892ZM22.4819 26.0091C22.2194 26.2717 21.8633 26.4192 21.492 26.4192V22.4192C20.8024 22.4192 20.1411 22.6931 19.6535 23.1807L22.4819 26.0091ZM21.492 26.4192H50.508V22.4192H21.492V26.4192ZM50.508 26.4192C50.1367 26.4192 49.7806 26.2717 49.518 26.0091L52.3465 23.1807C51.8589 22.6931 51.1975 22.4192 50.508 22.4192V26.4192ZM49.518 26.0091C49.2555 25.7466 49.108 25.3905 49.108 25.0192H53.108C53.108 24.3296 52.8341 23.6683 52.3465 23.1807L49.518 26.0091ZM49.108 25.0192C49.108 24.6479 49.2555 24.2918 49.518 24.0292L52.3465 26.8577C52.834 26.3701 53.108 25.7088 53.108 25.0192H49.108ZM49.518 24.0292C49.7806 23.7667 50.1367 23.6192 50.508 23.6192V27.6192C51.1976 27.6192 51.8589 27.3453 52.3465 26.8577L49.518 24.0292Z" fill="black" mask="url(#path-3-inside-2)"/>
</g>
</g>
</g>
<defs>
<clipPath id="clip0">
<rect width="49" height="49" fill="white" transform="translate(49 49) rotate(-180)"/>
</clipPath>
</defs>
</svg>
